<?xml version="1.0" encoding="utf-8"?>
<!-- Generator: Adobe Illustrator 21.0.2, SVG Export Plug-In . SVG Version: 6.00 Build 0)  -->
<svg version="1.1" id="Layer_1" xmlns="http://www.w3.org/2000/svg" xmlns:xlink="http://www.w3.org/1999/xlink" x="0px" y="0px"
	 width="18px" height="18px" viewBox="0 0 18 18" style="enable-background:new 0 0 18 18;" xml:space="preserve">
<style type="text/css">
	.st0{fill:#F7F7F7;}
</style>
<g>
	<path class="st0" d="M6,6.8c0.1-1.8,1.2-2.9,3-2.9c1.7,0,2.9,0.8,2.9,2.4c0,2.3-2.3,2.4-2.3,4.4H8.4c0-2.3,2-2.4,2-4.1
		c0-0.8-0.6-1.3-1.5-1.3C8,5.3,7.4,5.8,7.3,6.8L6,6.8z M9.9,13.1c0,0.6-0.4,1-0.9,1c-0.5,0-0.9-0.4-0.9-1c0-0.6,0.4-0.9,0.9-0.9
		C9.5,12.2,9.9,12.6,9.9,13.1z"/>
</g>
<path class="st0" d="M9,0C4,0,0,4,0,9c0,5,4,9,9,9s9-4,9-9C18,4,14,0,9,0z M9,17c-4.4,0-8-3.6-8-8s3.6-8,8-8s8,3.6,8,8S13.4,17,9,17
	z"/>
</svg>
